<?xml version="1.0" standalone="no"?>
<!DOCTYPE svg PUBLIC "-//W3C//DTD SVG 20010904//EN"
 "http://www.w3.org/TR/2001/REC-SVG-20010904/DTD/svg10.dtd">
<svg version="1.0" xmlns="http://www.w3.org/2000/svg"
 width="736.000000pt" height="736.000000pt" viewBox="0 0 736.000000 736.000000"
 preserveAspectRatio="xMidYMid meet">

<g transform="translate(0.000000,736.000000) scale(0.100000,-0.100000)"
fill="#000000" stroke="none">
<path d="M5433 6373 c-14 -5 -18 -33 -5 -33 4 0 14 5 22 10 17 11 2 30 -17 23z"/>
<path d="M5430 6117 c0 -21 11 -27 31 -16 27 14 23 29 -6 29 -14 0 -25 -6 -25
-13z"/>
<path d="M5794 5997 c-27 -24 -92 -77 -144 -119 -52 -42 -115 -95 -140 -118
-125 -114 -170 -152 -182 -148 -7 3 22 38 70 84 45 44 82 86 82 94 1 13 36 45
80 70 8 5 11 12 7 16 -9 9 -61 -32 -152 -121 -42 -41 -82 -75 -87 -75 -6 0 -7
-7 -4 -16 3 -8 2 -13 -3 -9 -13 7 -82 -35 -75 -46 3 -5 -2 -9 -10 -9 -9 0 -16
-4 -16 -10 0 -5 -22 -19 -49 -31 -31 -13 -71 -43 -106 -80 -45 -48 -75 -69
-153 -106 -72 -33 -108 -57 -139 -92 -30 -33 -45 -43 -53 -35 -12 12 41 87 87
123 15 12 19 18 8 12 -11 -5 -31 -21 -44 -35 -14 -14 -30 -26 -37 -26 -6 0
-11 -7 -10 -16 0 -9 -5 -19 -13 -22 -10 -3 -12 1 -8 17 3 11 3 21 0 21 -11 0
-63 -35 -63 -42 0 -4 -12 -8 -26 -8 -19 0 -25 4 -21 15 5 11 0 13 -22 9 -35
-7 -42 3 -34 49 5 32 9 36 45 42 27 5 45 16 60 36 12 16 29 31 39 34 14 5 15
10 6 35 -9 23 -8 33 2 42 10 11 15 10 24 -3 28 -37 107 -30 107 10 0 11 12 33
26 50 22 26 24 34 14 46 -11 13 -9 20 7 38 26 28 38 60 21 55 -7 -3 -14 -14
-16 -24 -4 -28 -96 -71 -171 -80 -34 -3 -61 -11 -61 -16 0 -4 -11 -13 -25 -20
-19 -8 -28 -8 -41 3 -14 11 -18 11 -29 -4 -18 -26 -38 -22 -31 6 5 21 -1 27
-43 47 -27 12 -54 19 -60 16 -6 -4 -11 -3 -11 3 0 25 -296 99 -495 122 -120
14 -456 5 -560 -16 -246 -49 -378 -91 -575 -186 -344 -166 -614 -401 -835
-729 -123 -182 -237 -436 -285 -638 -7 -30 -19 -56 -26 -59 -9 -3 -11 -9 -5
-17 5 -7 4 -44 -4 -96 -22 -151 -35 -255 -35 -286 0 -40 -33 -74 -72 -74 -30
0 -31 -1 -25 -41 3 -22 8 -43 11 -47 4 -3 23 2 42 12 20 9 38 16 39 14 1 -2 8
-44 14 -95 13 -96 9 -122 -14 -103 -19 16 -28 -3 -14 -32 6 -13 31 -35 55 -49
25 -13 52 -35 60 -48 15 -21 14 -25 -1 -40 -14 -14 -17 -14 -28 -1 -10 13 -17
14 -47 3 -19 -6 -31 -12 -27 -12 4 -1 -6 -15 -23 -31 -31 -30 -31 -38 -2 -72
7 -9 11 -22 7 -27 -3 -6 1 -18 9 -27 12 -12 20 -13 37 -4 22 12 49 7 49 -10 0
-5 -8 -10 -19 -10 -10 0 -24 -7 -31 -15 -17 -21 -30 -19 -30 4 0 10 -7 21 -15
25 -11 4 -15 -2 -15 -24 0 -19 5 -30 13 -30 8 0 22 -9 32 -20 17 -19 17 -21 0
-40 -10 -11 -14 -20 -8 -20 14 0 47 39 67 80 36 71 47 90 56 90 4 0 29 20 55
44 47 43 105 61 105 31 0 -15 -22 -25 -56 -25 -17 0 -24 -6 -24 -20 0 -16 4
-18 18 -12 9 5 38 19 64 31 25 13 54 31 65 40 10 9 26 20 35 24 10 3 18 11 18
17 0 5 5 10 10 10 6 0 36 19 66 41 53 41 70 46 59 18 -5 -12 -109 -96 -190
-154 -20 -14 -20 -14 2 -9 15 4 23 0 27 -14 8 -26 -33 -72 -63 -72 -12 0 -32
-9 -44 -20 -12 -12 -32 -23 -44 -26 -13 -4 -23 -10 -23 -15 0 -16 -18 -9 -23
9 -4 16 -4 16 -12 0 -4 -10 -4 -26 0 -35 13 -30 14 -64 4 -90 -8 -22 -7 -24 8
-18 29 11 35 11 40 -2 3 -8 -3 -13 -14 -13 -15 0 -15 -2 -3 -9 8 -6 17 -8 21
-5 4 2 10 0 14 -6 3 -5 -2 -11 -12 -11 -10 -1 -25 -2 -33 -3 -8 -1 -23 5 -32
12 -21 17 -38 8 -38 -20 0 -25 -64 -88 -91 -88 -12 0 -19 -7 -19 -19 0 -19
-18 -31 -49 -31 -16 0 -136 -109 -128 -116 1 -2 23 13 47 32 25 20 61 44 80
54 19 10 45 28 57 39 12 12 30 21 40 21 12 0 5 -13 -27 -46 -25 -26 -35 -40
-23 -33 44 27 36 -4 -12 -47 -28 -25 -41 -40 -30 -35 11 5 33 12 48 16 16 3
31 15 36 29 12 31 62 71 130 106 31 15 67 39 81 52 14 13 46 39 72 58 26 18
58 49 71 69 25 38 125 121 145 121 22 0 12 -15 -41 -60 -64 -54 -130 -137
-101 -126 10 4 63 32 117 62 l97 55 -22 19 -23 18 27 -5 c21 -4 33 1 52 23 22
25 27 27 37 14 8 -12 9 -6 5 22 -6 46 6 56 28 23 19 -28 20 -28 83 38 20 20
42 37 49 37 7 0 14 6 17 13 3 9 9 9 26 -1 12 -7 31 -10 42 -7 35 11 20 -12
-48 -75 -38 -34 -59 -58 -48 -52 11 6 37 27 59 46 21 20 41 36 43 36 3 0 15 9
27 19 11 11 53 46 91 79 39 33 81 72 95 88 l25 29 -25 -20 c-14 -11 -47 -40
-74 -64 l-49 -44 -17 23 c-11 15 -19 19 -24 11 -8 -13 -46 -15 -46 -2 0 16 99
101 119 101 10 0 21 7 25 15 3 8 13 15 22 15 9 0 27 9 41 20 33 26 40 19 16
-14 -10 -14 -33 -28 -50 -32 -18 -3 -33 -10 -33 -15 0 -5 -11 -15 -25 -21 -24
-11 -43 -44 -31 -56 4 -3 21 8 39 25 17 16 43 37 55 46 13 8 61 50 106 94 45
43 114 100 153 126 40 26 75 52 78 57 4 6 14 10 23 10 11 0 6 -10 -18 -35 -19
-19 -39 -35 -44 -35 -18 -1 -68 -49 -61 -59 3 -5 -20 -34 -52 -63 -142 -132
-208 -201 -205 -215 5 -24 -29 -55 -53 -49 -25 6 -85 -47 -66 -58 6 -4 11 -2
11 3 0 6 7 11 15 11 8 0 15 -7 15 -15 0 -8 -6 -15 -14 -15 -7 0 -16 -9 -19
-20 -6 -24 -1 -24 44 -6 19 7 42 16 52 19 15 6 16 10 5 26 -9 15 -15 17 -26 9
-9 -8 -16 -8 -24 0 -16 16 1 34 28 28 19 -5 24 -2 24 13 0 24 16 35 55 37 38
2 47 -13 29 -48 -9 -17 -10 -28 -4 -28 6 0 13 7 16 15 4 8 13 15 21 15 12 0
13 3 4 14 -15 18 -5 43 21 49 14 4 18 11 13 26 -4 13 0 23 12 31 16 10 15 10
-4 5 -16 -5 -23 -2 -23 8 0 9 13 17 33 20 40 6 56 -7 39 -31 -7 -9 -18 -29
-25 -44 -6 -16 -17 -28 -24 -28 -7 0 -13 -8 -13 -17 0 -14 5 -12 27 8 15 13
31 28 34 32 3 5 16 14 27 20 65 36 221 151 219 160 -1 7 8 11 23 9 20 -2 38
11 80 58 30 34 66 67 80 74 185 96 226 123 315 207 47 44 96 71 95 52 -1 -4
-43 -46 -94 -93 -60 -55 -89 -88 -82 -93 6 -5 1 -6 -11 -2 -12 3 -24 1 -28 -5
-3 -5 -34 -24 -68 -41 -34 -16 -64 -34 -67 -37 -3 -4 -27 -22 -55 -39 -27 -18
-58 -45 -68 -60 -22 -32 -43 -49 -183 -140 -63 -41 -101 -72 -100 -82 0 -9 -6
-17 -14 -17 -8 -1 -20 -2 -27 -3 -13 -1 -73 -61 -73 -73 0 -11 69 32 78 47 4
8 9 14 12 14 18 0 58 22 63 35 4 9 14 16 23 16 23 0 94 59 105 86 6 17 16 24
34 24 14 0 25 3 25 8 0 6 35 30 183 127 71 46 88 37 27 -13 -25 -20 -68 -57
-96 -82 -28 -25 -87 -76 -132 -115 -63 -54 -80 -74 -76 -90 4 -16 -4 -24 -38
-39 -65 -30 -71 -36 -51 -52 12 -9 14 -16 7 -21 -6 -5 -17 -23 -25 -40 -14
-33 -29 -44 -29 -21 0 6 -3 8 -7 5 -3 -4 2 -16 11 -26 20 -22 14 -41 -14 -41
-10 0 -22 -4 -25 -10 -3 -5 -1 -10 4 -10 6 0 11 -7 11 -16 0 -8 10 -30 23 -48
l22 -33 46 41 c25 22 49 49 53 60 4 11 12 16 21 12 26 -10 47 5 41 29 -4 14 0
28 11 36 14 13 16 11 11 -13 -4 -20 -1 -28 10 -28 17 0 111 67 130 92 7 10 30
27 50 37 20 11 54 40 75 65 21 25 43 46 49 46 16 0 94 58 145 108 24 24 48 42
54 40 14 -5 -69 -97 -114 -128 -26 -18 -33 -29 -29 -44 5 -19 4 -19 -11 -7
-14 11 -21 11 -41 -3 -14 -8 -37 -31 -51 -51 -15 -19 -44 -45 -64 -57 -40 -25
-70 -57 -71 -75 0 -6 -15 -22 -32 -34 -18 -13 -63 -50 -99 -83 -63 -57 -96
-80 -181 -126 -47 -25 -136 -112 -120 -118 31 -10 6 -22 -47 -22 l-60 0 -43
-65 c-39 -59 -68 -82 -68 -54 0 5 -4 8 -9 5 -5 -3 -7 -14 -5 -24 3 -11 -11
-30 -43 -57 -26 -22 -90 -82 -141 -132 -51 -51 -98 -93 -104 -93 -6 0 -45 -31
-87 -68 -42 -38 -93 -81 -113 -96 -21 -15 -36 -32 -35 -36 3 -14 -85 -120 -99
-120 -8 0 -14 -5 -14 -10 0 -6 -12 -15 -27 -21 -17 -7 -23 -13 -15 -16 16 -6
107 53 166 106 22 21 61 52 86 70 66 46 84 60 152 119 33 29 73 55 87 59 24 5
143 103 214 175 36 36 55 26 25 -12 -30 -37 -198 -185 -220 -193 -9 -3 -24
-22 -33 -41 -10 -20 -21 -36 -26 -36 -5 0 -6 -6 -3 -13 2 -7 -7 -24 -21 -37
-14 -13 -25 -27 -25 -31 0 -17 -85 -132 -101 -136 -10 -3 -21 -14 -24 -25 -10
-29 -118 -128 -240 -218 -60 -45 -117 -89 -127 -98 -9 -9 -33 -28 -53 -42 -21
-14 -56 -43 -79 -65 -23 -22 -76 -68 -117 -102 -41 -34 -90 -79 -109 -99 -26
-28 -17 -23 34 19 39 31 72 54 75 51 3 -3 -5 -14 -18 -25 -13 -11 -22 -22 -19
-24 2 -2 31 18 64 45 32 27 64 50 70 50 16 0 205 134 307 218 89 73 137 92
137 55 0 -10 -46 -62 -102 -117 -57 -54 -87 -86 -68 -72 84 63 155 108 203
128 29 12 56 25 60 29 13 10 -2 49 -18 49 -9 0 -12 7 -9 18 5 16 5 16 -9 -1
-8 -10 -21 -15 -31 -11 -22 8 -20 17 9 42 29 25 41 27 48 10 2 -7 8 10 12 37
9 58 31 91 51 74 7 -6 22 -8 32 -5 29 10 43 -16 40 -76 -2 -47 -5 -54 -23 -54
-15 1 -21 -6 -23 -32 -4 -41 -27 -42 -41 -2 -10 29 -21 37 -34 23 -4 -4 5 -19
19 -34 17 -18 24 -34 20 -45 -5 -14 -1 -15 26 -12 18 3 40 8 50 12 11 5 18 1
23 -14 5 -16 12 -19 28 -14 12 4 37 8 55 9 38 3 91 55 92 91 0 12 16 32 39 50
28 20 42 39 46 63 10 51 24 83 34 76 6 -3 6 -17 1 -35 -9 -31 5 -44 16 -15 4
8 14 15 24 15 9 0 30 10 45 21 21 17 29 19 35 9 6 -9 16 -4 38 21 28 31 31 33
56 20 24 -13 28 -12 58 17 28 29 38 32 90 32 44 0 60 -4 65 -16 3 -8 12 -13
19 -10 10 4 14 -3 14 -22 0 -15 3 -37 6 -50 5 -17 3 -21 -9 -17 -11 5 -13 0
-10 -17 4 -20 10 -23 41 -22 20 1 47 5 60 9 19 6 22 4 22 -20 0 -21 4 -26 16
-21 11 4 14 1 9 -13 -5 -16 0 -19 42 -20 94 -2 287 -29 291 -41 3 -7 8 -8 16
-1 6 5 52 12 101 15 325 18 583 83 860 216 359 173 678 465 883 810 37 63 83
149 101 190 18 41 40 89 48 105 8 17 18 46 23 65 5 19 25 89 44 156 76 267 98
625 56 892 -12 81 -11 85 50 152 17 19 43 56 56 82 13 26 28 50 34 53 11 7 3
124 -9 137 -4 4 -28 11 -54 14 -37 5 -51 3 -60 -8 -19 -25 -61 -29 -97 -12
-30 16 -33 15 -58 -3 -15 -11 -28 -29 -30 -41 -2 -11 -10 -26 -18 -32 -8 -7
-14 -20 -14 -29 0 -10 -17 -26 -37 -37 -29 -15 -39 -28 -46 -57 -11 -44 -91
-114 -111 -98 -7 6 -17 6 -26 1 -21 -14 -30 -12 -30 5 0 8 11 22 25 31 14 9
25 25 25 35 0 10 9 23 20 29 11 6 20 20 20 30 0 11 5 20 10 20 13 0 13 47 -1
55 -18 12 -64 -14 -77 -43 -37 -81 -65 -113 -84 -94 -19 19 -37 14 -44 -13 -8
-30 -40 -34 -49 -5 -9 27 -19 25 -33 -5 -11 -24 -9 -27 22 -42 19 -8 39 -27
46 -42 10 -23 9 -27 -12 -41 -12 -8 -34 -25 -46 -38 -16 -16 -28 -20 -35 -13
-8 6 -19 5 -31 -5 -11 -8 -32 -14 -48 -14 -15 0 -28 -4 -28 -10 0 -5 -7 -10
-15 -10 -8 0 -15 5 -15 11 0 6 -9 8 -22 3 -47 -15 -51 -12 -53 44 -2 56 -1 56
74 109 2 2 2 6 -1 9 -8 8 -56 -23 -100 -64 l-37 -35 -11 27 c-18 49 -9 71 17
45 9 -9 37 14 111 85 55 54 106 110 112 127 7 16 16 29 21 29 5 0 9 6 9 13 0
7 15 19 33 26 29 13 30 14 10 18 -38 7 -27 26 11 20 47 -8 67 16 72 88 2 35 0
54 -6 50 -14 -9 -12 19 2 33 10 10 7 16 -12 30 -31 21 -42 21 -48 2 -4 -12 -3
-13 10 -2 13 10 17 9 22 -10 9 -36 6 -44 -9 -24 -13 18 -17 16 -66 -28 -28
-25 -60 -57 -71 -71 -11 -14 -24 -25 -29 -25 -16 0 -10 23 13 47 33 36 7 27
-35 -11 -21 -19 -44 -37 -52 -40 -8 -3 -15 -10 -15 -16 0 -5 -4 -10 -10 -10
-5 0 -19 -8 -30 -17 l-21 -18 23 -6 c21 -5 23 -11 23 -67 0 -37 -4 -61 -10
-58 -5 2 -18 -1 -27 -6 -13 -6 -16 -16 -11 -38 3 -17 1 -30 -4 -30 -15 0 -33
23 -33 41 0 21 -16 33 -30 24 -6 -4 -2 -15 10 -27 11 -12 20 -25 20 -30 0 -14
-20 -9 -26 7 -4 8 -12 15 -20 15 -16 0 -19 46 -4 55 6 3 10 14 10 24 0 17 -3
18 -37 6 -20 -7 -42 -23 -49 -37 -7 -13 -25 -30 -39 -36 -15 -7 -43 -25 -63
-41 -20 -16 -55 -39 -77 -50 -46 -23 -105 -75 -105 -91 0 -6 -19 -19 -43 -29
-23 -10 -53 -30 -67 -45 -14 -15 -61 -55 -105 -88 -44 -34 -99 -78 -122 -97
-23 -20 -58 -49 -78 -64 -30 -25 -33 -32 -24 -49 10 -19 9 -20 -12 -15 -13 4
-32 7 -41 7 -10 0 -18 7 -18 15 0 8 5 15 12 15 12 0 74 55 198 172 39 38 85
75 103 85 18 9 51 34 74 56 23 22 52 47 65 56 61 42 207 163 212 176 8 22 -3
19 -68 -22 -54 -33 -79 -42 -168 -60 -43 -8 -33 12 21 45 60 37 161 135 161
156 0 9 6 16 13 16 6 0 57 30 112 68 83 56 104 75 126 117 33 63 25 89 -18 62
-8 -5 -11 5 -8 38 3 47 -7 58 -24 28 -11 -20 -18 -17 -23 12 -3 17 2 20 35 19
20 -1 37 3 37 7 0 5 -4 9 -10 9 -5 0 -10 5 -10 11 0 6 8 8 18 5 10 -4 27 1 38
9 16 13 17 16 4 25 -12 8 -12 12 -2 18 17 11 5 42 -14 35 -8 -3 -14 1 -14 10
0 19 20 33 29 20 9 -13 74 -10 78 4 3 7 -3 9 -17 6 -19 -5 -21 -2 -18 23 5 44
42 45 57 3 13 -38 -2 -61 -40 -64 -13 -1 -26 -11 -30 -23 -10 -25 3 -29 21 -7
7 8 19 15 26 15 8 0 14 5 14 10 0 6 9 10 20 10 11 0 20 5 20 12 0 7 15 28 33
47 17 20 23 28 11 18 -25 -21 -35 -22 -28 -2 4 8 1 15 -5 15 -6 0 -8 7 -4 16
4 10 13 14 26 10 11 -3 29 0 40 6 14 7 17 7 13 -1 -15 -23 12 -10 42 22 l33
34 -36 37 c-37 39 -45 66 -20 66 8 0 21 14 30 30 11 21 23 30 40 30 16 0 23 5
20 13 -5 11 66 80 154 150 20 16 59 50 86 76 28 26 77 72 110 101 33 30 59 60
57 67 -2 7 7 17 20 22 25 9 68 62 68 83 0 7 -19 -6 -42 -28 -91 -86 -402 -333
-420 -334 -23 0 0 30 50 67 95 69 222 184 216 195 -8 12 97 114 299 291 75 66
137 122 137 124 0 8 -11 0 -56 -40z m-1354 -367 c0 -5 -6 -10 -14 -10 -8 0
-16 -6 -19 -12 -3 -10 -7 -10 -17 -1 -7 6 -9 16 -6 22 9 14 56 15 56 1z m410
-4 c0 -2 -3 -11 -6 -20 -5 -12 -10 -13 -30 -4 -33 15 -30 28 6 28 17 0 30 -2
30 -4z m-456 -52 c4 -9 4 -19 1 -22 -3 -3 -5 0 -5 6 0 7 -7 12 -16 12 -8 0
-12 5 -9 10 9 15 22 12 29 -6z m230 -79 c8 -23 -10 -62 -32 -67 -15 -4 -19 0
-19 26 0 48 36 78 51 41z m-103 -148 c-1 -12 -15 -9 -19 4 -3 6 1 10 8 8 6 -3
11 -8 11 -12z m609 3 c0 -5 -2 -10 -4 -10 -3 0 -8 5 -11 10 -3 6 -1 10 4 10 6
0 11 -4 11 -10z m-438 -112 c-15 -15 -26 -4 -18 18 5 13 9 15 18 6 9 -9 9 -15
0 -24z m-232 3 c0 -5 -3 -17 -6 -25 -5 -13 -10 -14 -20 -6 -7 7 -10 18 -7 26
6 15 33 20 33 5z m120 -32 c0 -11 -11 -11 -29 0 -7 5 -10 14 -6 20 5 9 10 9
21 0 8 -6 14 -15 14 -20z m-71 -15 c6 -5 -20 -34 -31 -34 -6 0 -8 9 -5 20 3
10 0 21 -7 24 -6 3 0 3 14 0 14 -4 27 -8 29 -10z m103 -9 c0 -5 -5 -11 -11
-13 -6 -2 -11 4 -11 13 0 9 5 15 11 13 6 -2 11 -8 11 -13z m-162 -34 c0 -12
-20 -25 -27 -18 -7 7 6 27 18 27 5 0 9 -4 9 -9z m582 -78 c22 -20 23 -33 3
-33 -8 0 -15 4 -15 10 0 5 -10 9 -21 7 -27 -3 -37 20 -12 26 10 3 20 5 22 6 3
0 13 -6 23 -16z m-262 -233 c0 -5 -9 -10 -21 -10 -11 0 -17 5 -14 10 3 6 13
10 21 10 8 0 14 -4 14 -10z m-110 -226 c0 -8 -5 -12 -10 -9 -6 4 -8 11 -5 16
9 14 15 11 15 -7z m-380 -4 c0 -5 -4 -10 -10 -10 -5 0 -10 5 -10 10 0 6 5 10
10 10 6 0 10 -4 10 -10z m430 -14 c0 -18 -26 -39 -39 -31 -7 4 -6 12 2 25 14
23 37 27 37 6z m-560 -46 c0 -5 -4 -10 -10 -10 -5 0 -10 5 -10 10 0 6 5 10 10
10 6 0 10 -4 10 -10z m1034 -74 c-3 -9 -12 -16 -20 -16 -20 0 -17 28 4 32 22
5 24 4 16 -16z m-624 -6 c0 -5 -4 -10 -10 -10 -5 0 -10 5 -10 10 0 6 5 10 10
10 6 0 10 -4 10 -10z m500 0 c0 -5 -2 -10 -4 -10 -3 0 -8 5 -11 10 -3 6 -1 10
4 10 6 0 11 -4 11 -10z m767 -35 c9 -25 -2 -27 -22 -5 -17 18 -17 20 -1 20 9
0 19 -7 23 -15z m-1427 -10 c0 -8 -7 -15 -15 -15 -9 0 -12 6 -9 15 4 8 10 15
15 15 5 0 9 -7 9 -15z m-178 -40 c0 -5 -5 -11 -11 -13 -6 -2 -11 4 -11 13 0 9
5 15 11 13 6 -2 11 -8 11 -13z m168 -5 c0 -5 -5 -10 -11 -10 -5 0 -7 5 -4 10
3 6 8 10 11 10 2 0 4 -4 4 -10z m655 -20 c-3 -5 -10 -10 -16 -10 -5 0 -9 5 -9
10 0 6 7 10 16 10 8 0 12 -4 9 -10z m835 -11 c0 -5 -9 -9 -20 -9 -19 0 -26 11
-14 23 8 8 34 -3 34 -14z m-1590 -30 c0 -5 -9 -9 -20 -9 -19 0 -26 11 -14 23
8 8 34 -3 34 -14z m460 -13 c0 -3 -4 -8 -10 -11 -5 -3 -10 -1 -10 4 0 6 5 11
10 11 6 0 10 -2 10 -4z m635 -16 c3 -5 -1 -10 -10 -10 -9 0 -13 5 -10 10 3 6
8 10 10 10 2 0 7 -4 10 -10z m-448 -54 c-4 -9 -11 -16 -17 -16 -15 0 -24 26
-16 47 6 15 8 15 23 1 9 -9 13 -24 10 -32z m-1717 20 c0 -3 -4 -8 -10 -11 -5
-3 -10 -1 -10 4 0 6 5 11 10 11 6 0 10 -2 10 -4z m2110 -16 c0 -5 -4 -10 -10
-10 -5 0 -10 5 -10 10 0 6 5 10 10 10 6 0 10 -4 10 -10z m-1180 -10 c0 -5 -4
-10 -10 -10 -5 0 -10 5 -10 10 0 6 5 10 10 10 6 0 10 -4 10 -10z m152 -5 c0
-5 -5 -11 -11 -13 -6 -2 -11 4 -11 13 0 9 5 15 11 13 6 -2 11 -8 11 -13z m-32
-66 c0 -5 -7 -9 -15 -9 -15 0 -20 12 -9 23 8 8 24 -1 24 -14z m-73 -66 c2 -6
-5 -13 -16 -16 -11 -2 -21 -15 -23 -28 -2 -15 -27 -40 -75 -73 -39 -28 -96
-70 -126 -93 -58 -46 -67 -50 -67 -30 0 15 120 130 185 177 27 19 59 45 72 58
23 23 44 25 50 5z m593 -45 c0 -7 -21 -25 -48 -41 -26 -15 -55 -33 -64 -39
-23 -16 -35 -3 -17 18 18 22 100 74 117 74 6 0 12 -6 12 -12z m80 -10 c0 -28
-13 -57 -26 -62 -23 -9 -27 21 -7 48 20 28 33 33 33 14z m330 3 c0 -14 -18
-23 -30 -16 -6 4 -8 11 -5 16 8 12 35 12 35 0z m-58 -33 c-7 -7 -12 -8 -12 -2
0 14 12 26 19 19 2 -3 -1 -11 -7 -17z m-1192 -52 c0 -3 -4 -8 -10 -11 -5 -3
-10 -1 -10 4 0 6 5 11 10 11 6 0 10 -2 10 -4z m639 -78 c1 -5 -7 -8 -18 -8
-10 0 -24 -7 -31 -15 -7 -8 -16 -15 -21 -15 -19 0 -7 25 24 51 28 24 33 25 39
11 4 -10 7 -20 7 -24z m-559 22 c0 -5 -7 -10 -16 -10 -8 0 -12 5 -9 10 3 6 10
10 16 10 5 0 9 -4 9 -10z m1216 -11 c3 -6 -5 -23 -19 -37 -23 -23 -27 -24 -33
-8 -4 10 1 25 11 36 21 23 31 25 41 9z m-86 -28 c0 -25 -11 -33 -26 -20 -10 8
-11 16 -3 30 12 22 29 16 29 -10z m-3505 -81 c3 -5 -3 -18 -14 -29 -18 -18
-19 -18 -24 -1 -7 28 24 53 38 30z m2525 -110 c0 -5 -4 -10 -9 -10 -6 0 -13 5
-16 10 -3 6 1 10 9 10 9 0 16 -4 16 -10z m-2660 -8 c0 -13 -12 -22 -22 -16
-10 6 -1 24 13 24 5 0 9 -4 9 -8z m1700 -72 c0 -5 -4 -10 -10 -10 -5 0 -10 5
-10 10 0 6 5 10 10 10 6 0 10 -4 10 -10z m1000 -10 c0 -5 -7 -10 -15 -10 -8 0
-15 5 -15 10 0 6 7 10 15 10 8 0 15 -4 15 -10z m-205 -20 c3 -5 -1 -10 -10
-10 -9 0 -13 5 -10 10 3 6 8 10 10 10 2 0 7 -4 10 -10z m-740 -20 c3 -5 -1
-10 -9 -10 -9 0 -16 5 -16 10 0 6 4 10 9 10 6 0 13 -4 16 -10z m1195 -40 c0
-5 -4 -10 -10 -10 -5 0 -10 5 -10 10 0 6 5 10 10 10 6 0 10 -4 10 -10z m-1230
-60 c0 -5 -4 -10 -10 -10 -5 0 -10 5 -10 10 0 6 5 10 10 10 6 0 10 -4 10 -10z
m-1456 -33 c8 -13 6 -22 -11 -38 -27 -27 -54 -20 -46 13 12 48 36 59 57 25z
m1250 7 c9 -24 7 -28 -9 -14 -17 14 -20 30 -6 30 5 0 12 -7 15 -16z m651 -15
c-8 -12 -45 -12 -45 0 0 10 30 20 43 14 4 -3 5 -9 2 -14z m-475 -4 c0 -16 -27
-32 -37 -22 -3 4 -3 13 0 22 8 20 37 20 37 0z m-1603 -21 c-9 -9 -28 6 -21 18
4 6 10 6 17 -1 6 -6 8 -13 4 -17z m1899 9 c-2 -9 -8 -19 -14 -21 -14 -4 -15 0
-6 22 8 21 23 20 20 -1z m-1595 -30 c7 -20 7 -33 0 -45 -6 -10 -11 -28 -11
-41 0 -25 -17 -47 -35 -47 -18 0 -17 70 0 76 10 4 15 20 15 45 0 45 16 51 31
12z m1140 4 c-13 -13 -26 -3 -16 12 3 6 11 8 17 5 6 -4 6 -10 -1 -17z m239 13
c0 -5 -4 -10 -10 -10 -5 0 -10 5 -10 10 0 6 5 10 10 10 6 0 10 -4 10 -10z
m-270 -50 c-9 -6 -19 -5 -25 1 -6 6 -5 13 5 19 9 6 19 5 25 -1 6 -6 5 -13 -5
-19z m60 5 c0 -8 -7 -15 -15 -15 -16 0 -20 12 -8 23 11 12 23 8 23 -8z m-1240
-10 c0 -8 -4 -15 -10 -15 -5 0 -10 7 -10 15 0 8 5 15 10 15 6 0 10 -7 10 -15z
m1183 -30 c1 -5 -13 -11 -30 -13 -31 -3 -42 6 -26 22 10 10 53 3 56 -9z m585
-23 c2 -7 -6 -12 -17 -12 -21 0 -27 11 -14 24 9 9 26 2 31 -12z m-662 -17
c-19 -14 -36 -12 -36 6 0 5 12 9 28 9 26 -1 26 -1 8 -15z m814 5 c0 -5 -2 -10
-4 -10 -3 0 -8 5 -11 10 -3 6 -1 10 4 10 6 0 11 -4 11 -10z m-1922 -12 c-6
-18 -28 -21 -28 -4 0 9 7 16 16 16 9 0 14 -5 12 -12z m1452 -8 c0 -5 -7 -10
-15 -10 -8 0 -15 5 -15 10 0 6 7 10 15 10 8 0 15 -4 15 -10z m48 -51 c-2 -6
-8 -10 -13 -10 -5 0 -11 4 -13 10 -2 6 4 11 13 11 9 0 15 -5 13 -11z m712 -4
c0 -8 -4 -15 -10 -15 -5 0 -10 7 -10 15 0 8 5 15 10 15 6 0 10 -7 10 -15z
m-1265 -25 c-5 -8 -11 -8 -17 -2 -6 6 -7 16 -3 22 5 8 11 8 17 2 6 -6 7 -16 3
-22z m-1115 0 c0 -5 -4 -10 -10 -10 -5 0 -10 5 -10 10 0 6 5 10 10 10 6 0 10
-4 10 -10z m910 -5 c0 -8 -7 -15 -15 -15 -16 0 -20 12 -8 23 11 12 23 8 23 -8z
m-970 -35 c0 -5 -4 -10 -10 -10 -5 0 -10 5 -10 10 0 6 5 10 10 10 6 0 10 -4
10 -10z m670 -19 c0 -6 -9 -17 -21 -25 -12 -8 -18 -19 -14 -25 3 -6 -1 -11
-10 -11 -9 0 -28 -9 -42 -20 -28 -22 -43 -25 -43 -11 0 12 108 101 121 101 5
0 9 -4 9 -9z m1080 -4 c0 -14 -20 -37 -32 -37 -12 0 -10 24 4 38 16 16 28 15
28 -1z m-1010 -26 c0 -12 -20 -25 -27 -18 -7 7 6 27 18 27 5 0 9 -4 9 -9z
m740 -6 c0 -8 -4 -15 -10 -15 -5 0 -10 7 -10 15 0 8 5 15 10 15 6 0 10 -7 10
-15z m440 -19 c0 -3 -4 -8 -10 -11 -5 -3 -10 -1 -10 4 0 6 5 11 10 11 6 0 10
-2 10 -4z m-34 -43 c-10 -10 -19 5 -10 18 6 11 8 11 12 0 2 -7 1 -15 -2 -18z
m-328 6 c-2 -6 -8 -10 -13 -10 -5 0 -11 4 -13 10 -2 6 4 11 13 11 9 0 15 -5
13 -11z m-1248 -24 c0 -8 -4 -15 -9 -15 -13 0 -22 16 -14 24 11 11 23 6 23 -9z
m1114 -54 c8 -12 -3 -41 -15 -41 -5 0 -9 11 -9 25 0 25 14 34 24 16z m-1295
-115 c7 -8 21 -12 31 -9 14 4 20 0 20 -11 0 -9 -3 -16 -7 -16 -5 0 -18 -3 -30
-6 -17 -5 -23 -2 -23 10 0 9 -4 16 -10 16 -5 0 -10 7 -10 15 0 19 14 19 29 1z
m1475 -28 c8 -33 8 -38 -8 -38 -14 0 -26 21 -26 46 0 23 27 16 34 -8z m-68
-53 c-6 -18 -36 -20 -36 -4 0 16 34 40 38 28 2 -5 1 -16 -2 -24z m4 -49 c0 -8
-4 -17 -9 -21 -12 -7 -24 12 -16 25 9 15 25 12 25 -4z m-55 -15 c3 -5 1 -12
-5 -16 -5 -3 -10 1 -10 9 0 18 6 21 15 7z m-15 -106 c0 -8 -9 -15 -20 -15 -25
0 -26 17 -2 23 9 3 18 5 20 6 1 0 2 -6 2 -14z m-30 -43 c0 -13 -12 -22 -22
-16 -10 6 -1 24 13 24 5 0 9 -4 9 -8z m-20 -201 c0 -34 -26 -49 -48 -28 -18
19 0 57 28 57 15 0 20 -7 20 -29z m250 -24 c0 -8 -9 -22 -20 -32 -18 -16 -20
-16 -26 -1 -7 19 12 46 32 46 8 0 14 -6 14 -13z m-146 -38 c-3 -5 -10 -7 -15
-3 -5 3 -7 10 -3 15 3 5 10 7 15 3 5 -3 7 -10 3 -15z m-634 -36 c0 -12 -33
-43 -47 -43 -11 0 -10 6 4 25 17 22 43 34 43 18z m200 -13 c0 -5 -7 -10 -16
-10 -8 0 -12 5 -9 10 3 6 10 10 16 10 5 0 9 -4 9 -10z m-50 -40 c0 -5 -7 -10
-16 -10 -8 0 -12 5 -9 10 3 6 10 10 16 10 5 0 9 -4 9 -10z m184 -6 c11 -28 7
-42 -13 -49 -11 -3 -21 -16 -23 -28 -2 -14 -11 -23 -26 -25 -21 -3 -22 0 -19
35 3 25 10 39 20 41 9 2 19 12 22 23 8 23 31 25 39 3z m111 -15 c0 -27 -28
-38 -50 -19 -21 17 -19 29 8 40 31 12 42 7 42 -21z m-335 -9 c0 -5 -7 -10 -15
-10 -8 0 -15 5 -15 10 0 6 7 10 15 10 8 0 15 -4 15 -10z m115 0 c9 -15 -16
-43 -27 -32 -10 10 0 42 12 42 5 0 12 -5 15 -10z m-32 -46 c18 -4 27 -13 27
-25 0 -24 -37 -39 -86 -36 -33 2 -38 -2 -56 -35 -22 -42 -38 -49 -38 -18 0 11
3 20 8 20 4 0 16 16 26 35 27 50 55 77 74 71 9 -3 29 -8 45 -12z m-358 -25
c-8 -12 -35 -12 -35 0 0 11 22 20 33 14 4 -2 5 -9 2 -14z m150 -109 c-17 -19
-45 -27 -45 -13 0 4 10 17 22 30 28 30 51 14 23 -17z m815 -46 c0 -8 -5 -12
-10 -9 -6 4 -8 11 -5 16 9 14 15 11 15 -7z m70 -109 c0 -8 -4 -15 -9 -15 -13
0 -22 16 -14 24 11 11 23 6 23 -9z m-1040 -15 c0 -5 -4 -10 -10 -10 -5 0 -10
5 -10 10 0 6 5 10 10 10 6 0 10 -4 10 -10z m1000 -3 c0 -15 -29 -57 -30 -42 0
6 3 20 6 33 7 24 24 31 24 9z m-780 -7 c0 -5 -5 -10 -11 -10 -5 0 -7 5 -4 10
3 6 8 10 11 10 2 0 4 -4 4 -10z m120 -5 c12 -15 11 -16 -11 -19 -17 -2 -29
-40 -15 -48 6 -4 7 -10 2 -15 -4 -4 -12 0 -17 10 -6 9 -17 17 -26 17 -13 0
-13 3 -3 15 7 8 19 15 26 15 8 0 14 9 14 20 0 24 13 26 30 5z m650 -65 c0 -5
-4 -10 -10 -10 -5 0 -10 5 -10 10 0 6 5 10 10 10 6 0 10 -4 10 -10z m-710 -20
c0 -6 -9 -20 -20 -32 l-20 -22 0 25 c0 14 3 29 7 32 10 11 33 8 33 -3z m-70
-24 c0 -11 -19 -15 -25 -6 -3 5 1 10 9 10 9 0 16 -2 16 -4z m-70 -46 c0 -5 -4
-10 -10 -10 -5 0 -10 5 -10 10 0 6 5 10 10 10 6 0 10 -4 10 -10z m80 -39 c0
-6 -4 -13 -10 -16 -5 -3 -10 1 -10 9 0 9 5 16 10 16 6 0 10 -4 10 -9z m-117
-23 c28 -27 25 -48 -9 -48 -17 0 -25 7 -30 24 -5 22 0 46 11 46 2 0 15 -10 28
-22z"/>
<path d="M5675 5799 c-25 -23 -43 -44 -41 -47 3 -2 26 16 52 42 60 57 50 61
-11 5z"/>
<path d="M4695 5419 c-4 -11 -4 -23 -2 -26 9 -8 27 7 27 22 0 23 -18 27 -25 4z"/>
<path d="M4580 5365 c0 -8 5 -15 10 -15 6 0 10 7 10 15 0 8 -4 15 -10 15 -5 0
-10 -7 -10 -15z"/>
<path d="M5082 5149 c-18 -28 -11 -32 26 -13 43 21 49 34 15 34 -18 0 -33 -8
-41 -21z"/>
<path d="M5170 5150 c-8 -5 -12 -12 -9 -15 4 -3 12 1 19 10 14 17 11 19 -10 5z"/>
<path d="M5129 5104 c-7 -8 -21 -13 -31 -11 -10 3 -18 1 -18 -4 0 -17 37 -9
55 11 10 11 16 20 13 20 -3 0 -11 -7 -19 -16z"/>
<path d="M5525 4959 c-11 -17 1 -21 15 -4 8 9 8 15 2 15 -6 0 -14 -5 -17 -11z"/>
<path d="M5565 4882 c-45 -42 -107 -97 -138 -122 -43 -34 -55 -49 -51 -64 5
-14 3 -18 -10 -13 -18 7 -33 -10 -20 -23 11 -11 67 37 59 50 -3 6 4 14 17 19
13 5 52 40 88 78 166 174 186 202 55 75z"/>
<path d="M5477 4903 c-4 -3 -7 -11 -7 -17 0 -6 5 -5 12 2 6 6 9 14 7 17 -3 3
-9 2 -12 -2z"/>
<path d="M5665 4900 c-3 -5 -2 -10 4 -10 5 0 13 5 16 10 3 6 2 10 -4 10 -5 0
-13 -4 -16 -10z"/>
<path d="M4880 4829 c0 -5 5 -7 10 -4 6 3 10 8 10 11 0 2 -4 4 -10 4 -5 0 -10
-5 -10 -11z"/>
<path d="M5387 4813 c-4 -3 -7 -11 -7 -17 0 -6 5 -5 12 2 6 6 9 14 7 17 -3 3
-9 2 -12 -2z"/>
<path d="M5350 4775 c-7 -9 -11 -18 -8 -20 3 -3 11 1 18 10 7 9 11 18 8 20 -3
3 -11 -1 -18 -10z"/>
<path d="M5535 4760 c-3 -5 -1 -10 4 -10 6 0 11 5 11 10 0 6 -2 10 -4 10 -3 0
-8 -4 -11 -10z"/>
<path d="M4890 4745 c-20 -24 -6 -28 15 -5 10 11 13 20 8 20 -6 0 -16 -7 -23
-15z"/>
<path d="M5473 4705 c0 -8 4 -12 9 -9 5 3 6 10 3 15 -9 13 -12 11 -12 -6z"/>
<path d="M5113 4657 c-10 -13 -26 -26 -36 -30 -9 -3 -16 -12 -15 -19 2 -7 -3
-12 -9 -10 -7 1 -13 -7 -13 -19 0 -20 0 -20 28 -1 15 11 37 38 49 61 25 46 23
52 -4 18z"/>
<path d="M5360 4611 c-30 -27 -58 -47 -62 -44 -16 9 -7 31 14 37 17 4 20 8 11
17 -8 8 -18 7 -36 -7 -31 -23 -47 -55 -47 -95 l0 -30 23 22 c12 11 42 33 67
48 149 89 163 101 113 101 -19 0 -46 -16 -83 -49z"/>
<path d="M5345 4490 c-3 -5 -1 -10 4 -10 6 0 11 5 11 10 0 6 -2 10 -4 10 -3 0
-8 -4 -11 -10z"/>
<path d="M5277 4461 c-20 -34 -22 -51 -6 -51 17 0 38 32 39 58 0 30 -12 28
-33 -7z"/>
<path d="M5386 4473 c-6 -15 8 -32 25 -33 13 0 17 28 6 39 -15 15 -24 14 -31
-6z"/>
<path d="M5210 4405 c-7 -8 -8 -15 -2 -15 5 0 15 7 22 15 7 8 8 15 2 15 -5 0
-15 -7 -22 -15z"/>
<path d="M5128 4327 c-18 -19 -40 -42 -49 -53 -9 -10 -38 -36 -63 -58 -51 -43
-57 -56 -24 -56 22 0 135 108 130 124 -2 5 6 18 16 30 46 51 39 61 -10 13z"/>
<path d="M1455 3820 c3 -5 8 -10 11 -10 2 0 4 5 4 10 0 6 -5 10 -11 10 -5 0
-7 -4 -4 -10z"/>
<path d="M1440 3596 c0 -26 15 -43 24 -28 7 12 -4 52 -15 52 -5 0 -9 -11 -9
-24z"/>
<path d="M1541 3303 c-1 -12 4 -25 9 -28 12 -7 12 2 0 30 -8 19 -9 19 -9 -2z"/>
<path d="M2500 3008 c-19 -17 -52 -41 -72 -54 -21 -14 -38 -28 -38 -33 0 -5
-10 -11 -22 -15 -22 -5 -22 -6 -6 -22 16 -16 19 -16 50 8 18 14 52 35 74 46
34 17 43 28 48 58 4 20 6 38 4 39 -2 2 -19 -10 -38 -27z"/>
<path d="M1585 2898 c12 -39 25 -44 25 -10 0 22 -5 32 -16 32 -11 0 -14 -6 -9
-22z"/>
<path d="M3090 2800 c-25 -22 -40 -40 -34 -40 16 0 104 58 104 70 0 20 -26 9
-70 -30z"/>
<path d="M2945 2740 c-3 -6 1 -7 9 -4 18 7 21 14 7 14 -6 0 -13 -4 -16 -10z"/>
<path d="M2025 2720 c-17 -18 -17 -21 -1 -46 17 -25 18 -25 37 -8 22 20 25 44
7 62 -16 16 -22 15 -43 -8z"/>
<path d="M2875 2730 c-4 -7 -18 -10 -31 -7 -12 2 -29 0 -36 -4 -9 -6 -3 -10
19 -15 18 -4 30 -10 27 -15 -3 -5 0 -9 5 -9 6 0 11 5 11 10 0 6 9 10 20 10 23
0 26 13 6 29 -11 9 -16 9 -21 1z"/>
<path d="M2780 2690 c0 -5 5 -10 10 -10 6 0 10 5 10 10 0 6 -4 10 -10 10 -5 0
-10 -4 -10 -10z"/>
<path d="M1320 2489 c-17 -13 -18 -17 -5 -10 33 17 51 31 40 31 -5 0 -21 -10
-35 -21z"/>
<path d="M2540 2339 c-36 -34 -48 -48 -28 -33 62 48 112 94 102 94 -5 0 -38
-28 -74 -61z"/>
<path d="M1973 2150 c-32 -13 -29 -32 4 -28 17 2 29 10 31 21 4 19 -2 20 -35
7z"/>
<path d="M2305 1940 c-3 -5 -2 -10 4 -10 5 0 13 5 16 10 3 6 2 10 -4 10 -5 0
-13 -4 -16 -10z"/>
<path d="M2061 1880 c-13 -11 -19 -20 -14 -20 6 0 18 9 28 20 23 25 17 25 -14
0z"/>
<path d="M2261 1846 c-9 -11 -9 -16 0 -21 10 -7 28 10 29 28 0 12 -17 8 -29
-7z"/>
<path d="M3070 1790 c0 -5 5 -10 10 -10 6 0 10 5 10 10 0 6 -4 10 -10 10 -5 0
-10 -4 -10 -10z"/>
<path d="M2843 1623 c-13 -8 -23 -21 -23 -29 0 -7 -13 -33 -30 -57 -30 -46
-38 -81 -20 -92 13 -8 80 43 80 62 0 8 15 20 34 28 45 19 50 28 36 70 -13 39
-39 45 -77 18z m42 -33 c3 -6 -1 -13 -10 -16 -19 -8 -30 0 -20 15 8 14 22 14
30 1z"/>
<path d="M3244 1578 c-10 -15 12 -30 37 -26 34 4 31 33 -4 34 -15 1 -30 -3
-33 -8z"/>
<path d="M3008 1534 c-32 -17 -37 -34 -10 -34 17 1 62 32 62 44 0 10 -24 6
-52 -10z"/>
<path d="M3255 1480 c-3 -5 -1 -10 4 -10 6 0 11 5 11 10 0 6 -2 10 -4 10 -3 0
-8 -4 -11 -10z"/>
<path d="M2826 1424 c-18 -17 -21 -44 -7 -44 17 0 40 30 35 45 -8 19 -9 19
-28 -1z"/>
<path d="M2180 1385 c0 -8 5 -15 10 -15 6 0 10 7 10 15 0 8 -4 15 -10 15 -5 0
-10 -7 -10 -15z"/>
<path d="M2651 1341 c-7 -5 -9 -11 -5 -14 5 -3 15 1 22 9 14 16 5 18 -17 5z"/>
<path d="M1909 1253 c-13 -16 -12 -17 4 -4 16 13 21 21 13 21 -2 0 -10 -8 -17
-17z"/>
</g>
</svg>
